<svg xmlns="http://www.w3.org/2000/svg" xmlns:xlink="http://www.w3.org/1999/xlink">
  <symbol id="user" viewBox="0 96 960 960">
    <title>User</title>
    <path fill="currentColor" d="M480 576q-66 0-113-47t-47-113q0-66 47-113t113-47q66 0 113 47t47 113q0 66-47 113t-113 47Zm240 320H240q-33 0-56.5-23.5T160 816v-32q0-34 17.5-62.5T224 678q62-31 126-46.5T480 616q66 0 130 15.5T736 678q29 15 46.5 43.5T800 784v32q0 33-23.5 56.5T720 896Zm-480-80h480v-32q0-11-5.5-20T700 750q-54-27-109-40.5T480 696q-56 0-111 13.5T260 750q-9 5-14.5 14t-5.5 20v32Zm240-320q33 0 56.5-23.5T560 416q0-33-23.5-56.5T480 336q-33 0-56.5 23.5T400 416q0 33 23.5 56.5T480 496Zm0-80Zm0 400Z" />
  </symbol>
  <symbol id="search" viewBox="0 96 960 960">
    <title>Search</title>
    <path fill="currentColor" d="M756 908 532 684q-30 24-69 38t-83 14q-109 0-184.5-75.5T120 476q0-109 75.5-184.5T380 216q109 0 184.5 75.5T640 476q0 44-14 83t-38 69l225 225q11 11 11 27t-12 28q-11 11-28 11t-28-11ZM380 656q75 0 127.5-52.5T560 476q0-75-52.5-127.5T380 296q-75 0-127.5 52.5T200 476q0 75 52.5 127.5T380 656Z"/>
  </symbol>
  <symbol id="publication" viewBox="0 96 960 960">
    <title>Publication</title>
    <path fill="currentColor" d="M320 896q-33 0-56.5-23.5T240 816v-80q0-17 11.5-28.5T280 696h80v-90q-35-2-66.5-15.5T236 550v-44h-46l-96-96q-17-17-17-35t17-32q29-25 71.5-38t90.5-13q27 0 52.5 4t51.5 15v-15q0-17 11.5-28.5T400 256h400q17 0 28.5 11.5T840 296v480q0 50-35 85t-85 35H320Zm120-200h200q17 0 28.5 11.5T680 736v40q0 17 11.5 28.5T720 816q17 0 28.5-11.5T760 776V336H440v24l228 228q7 7 9.5 13t2.5 15q0 17-11.5 28.5T640 656q-9 0-15-2.5t-13-9.5L510 542l-8 8q-14 14-29.5 25T440 592v104ZM224 426h92v86q12 8 25 11t27 3q23 0 41.5-7t36.5-25l8-8-56-56q-29-29-65-43.5T256 372q-20 0-38 3t-36 9l42 42Zm96 390h286q-3-9-4.5-19t-1.5-21H320v40Zm0 0v-40 40Z" />
  </symbol>
  <symbol id="notification" viewBox="0 96 960 960">
    <title>Notification</title>
    <path fill="currentColor" d="M200 856q-17 0-28.5-11.5T160 816q0-17 11.5-28.5T200 776h40V496q0-83 50-147.5T420 264v-28q0-25 17.5-42.5T480 176q25 0 42.5 17.5T540 236v28q80 20 130 84.5T720 496v280h40q17 0 28.5 11.5T800 816q0 17-11.5 28.5T760 856H200Zm280-300Zm0 420q-33 0-56.5-23.5T400 896h160q0 33-23.5 56.5T480 976ZM320 776h320V496q0-66-47-113t-113-47q-66 0-113 47t-47 113v280Z" />
  </symbol>
  <symbol id="logo" viewBox="0 0 205 100">
    <title>Logotipo</title>
    <path d="M109.164 49.6953H115.562V58.2969C114.664 58.5938 113.734 58.8242 112.773 58.9883C111.812 59.1523 110.734 59.2344 109.539 59.2344C107.797 59.2344 106.32 58.8906 105.109 58.2031C103.906 57.5078 102.992 56.5039 102.367 55.1914C101.742 53.8711 101.43 52.2812 101.43 50.4219C101.43 48.6328 101.777 47.082 102.473 45.7695C103.168 44.4492 104.18 43.4297 105.508 42.7109C106.836 41.9844 108.445 41.6211 110.336 41.6211C111.266 41.6211 112.164 41.7148 113.031 41.9023C113.906 42.082 114.707 42.332 115.434 42.6523L114.449 44.9727C113.871 44.6992 113.223 44.4688 112.504 44.2812C111.785 44.0938 111.039 44 110.266 44C109.039 44 107.98 44.2656 107.09 44.7969C106.207 45.3281 105.527 46.0781 105.051 47.0469C104.574 48.0078 104.336 49.1445 104.336 50.457C104.336 51.7305 104.527 52.8477 104.91 53.8086C105.293 54.7695 105.891 55.5195 106.703 56.0586C107.523 56.5898 108.582 56.8555 109.879 56.8555C110.527 56.8555 111.078 56.8203 111.531 56.75C111.984 56.6797 112.402 56.6016 112.785 56.5156V52.0977H109.164V49.6953ZM124.469 45.7812C126.109 45.7812 127.348 46.1445 128.184 46.8711C129.027 47.5977 129.449 48.7305 129.449 50.2695V59H127.492L126.965 57.1602H126.871C126.504 57.6289 126.125 58.0156 125.734 58.3203C125.344 58.625 124.891 58.8516 124.375 59C123.867 59.1562 123.246 59.2344 122.512 59.2344C121.738 59.2344 121.047 59.0938 120.438 58.8125C119.828 58.5234 119.348 58.0859 118.996 57.5C118.645 56.9141 118.469 56.1719 118.469 55.2734C118.469 53.9375 118.965 52.9336 119.957 52.2617C120.957 51.5898 122.465 51.2188 124.48 51.1484L126.73 51.0664V50.3867C126.73 49.4883 126.52 48.8477 126.098 48.4648C125.684 48.082 125.098 47.8906 124.34 47.8906C123.691 47.8906 123.062 47.9844 122.453 48.1719C121.844 48.3594 121.25 48.5898 120.672 48.8633L119.781 46.918C120.414 46.582 121.133 46.3086 121.938 46.0977C122.75 45.8867 123.594 45.7812 124.469 45.7812ZM126.719 52.8008L125.043 52.8594C123.668 52.9062 122.703 53.1406 122.148 53.5625C121.594 53.9844 121.316 54.5625 121.316 55.2969C121.316 55.9375 121.508 56.4062 121.891 56.7031C122.273 56.9922 122.777 57.1367 123.402 57.1367C124.355 57.1367 125.145 56.8672 125.77 56.3281C126.402 55.7812 126.719 54.9805 126.719 53.9258V52.8008ZM138.133 57.0078C138.492 57.0078 138.848 56.9766 139.199 56.9141C139.551 56.8438 139.871 56.7617 140.16 56.668V58.7539C139.855 58.8867 139.461 59 138.977 59.0938C138.492 59.1875 137.988 59.2344 137.465 59.2344C136.73 59.2344 136.07 59.1133 135.484 58.8711C134.898 58.6211 134.434 58.1953 134.09 57.5938C133.746 56.9922 133.574 56.1602 133.574 55.0977V48.125H131.805V46.8945L133.703 45.9219L134.605 43.1445H136.34V46.0273H140.055V48.125H136.34V55.0625C136.34 55.7188 136.504 56.207 136.832 56.5273C137.16 56.8477 137.594 57.0078 138.133 57.0078ZM147.965 45.7812C149.121 45.7812 150.113 46.0195 150.941 46.4961C151.77 46.9727 152.406 47.6484 152.852 48.5234C153.297 49.3984 153.52 50.4453 153.52 51.6641V53.1406H144.859C144.891 54.3984 145.227 55.3672 145.867 56.0469C146.516 56.7266 147.422 57.0664 148.586 57.0664C149.414 57.0664 150.156 56.9883 150.812 56.832C151.477 56.668 152.16 56.4297 152.863 56.1172V58.3555C152.215 58.6602 151.555 58.8828 150.883 59.0234C150.211 59.1641 149.406 59.2344 148.469 59.2344C147.195 59.2344 146.074 58.9883 145.105 58.4961C144.145 57.9961 143.391 57.2539 142.844 56.2695C142.305 55.2852 142.035 54.0625 142.035 52.6016C142.035 51.1484 142.281 49.9141 142.773 48.8984C143.266 47.8828 143.957 47.1094 144.848 46.5781C145.738 46.0469 146.777 45.7812 147.965 45.7812ZM147.965 47.8555C147.098 47.8555 146.395 48.1367 145.855 48.6992C145.324 49.2617 145.012 50.0859 144.918 51.1719H150.824C150.816 50.5234 150.707 49.9492 150.496 49.4492C150.293 48.9492 149.98 48.5586 149.559 48.2773C149.145 47.9961 148.613 47.8555 147.965 47.8555ZM159.379 46.0273V59H156.625V46.0273H159.379ZM158.02 41.0586C158.441 41.0586 158.805 41.1719 159.109 41.3984C159.422 41.625 159.578 42.0156 159.578 42.5703C159.578 43.1172 159.422 43.5078 159.109 43.7422C158.805 43.9688 158.441 44.082 158.02 44.082C157.582 44.082 157.211 43.9688 156.906 43.7422C156.609 43.5078 156.461 43.1172 156.461 42.5703C156.461 42.0156 156.609 41.625 156.906 41.3984C157.211 41.1719 157.582 41.0586 158.02 41.0586ZM166.082 40.7656V49.5781C166.082 49.9766 166.066 50.4141 166.035 50.8906C166.004 51.3594 165.973 51.8008 165.941 52.2148H166C166.203 51.9414 166.445 51.6211 166.727 51.2539C167.016 50.8867 167.289 50.5664 167.547 50.293L171.508 46.0273H174.672L169.48 51.6055L175.012 59H171.777L167.629 53.3047L166.082 54.6289V59H163.328V40.7656H166.082ZM188.395 46.0273V59H186.227L185.852 57.2539H185.699C185.426 57.6992 185.078 58.0703 184.656 58.3672C184.234 58.6562 183.766 58.8711 183.25 59.0117C182.734 59.1602 182.191 59.2344 181.621 59.2344C180.645 59.2344 179.809 59.0703 179.113 58.7422C178.426 58.4062 177.898 57.8906 177.531 57.1953C177.164 56.5 176.98 55.6016 176.98 54.5V46.0273H179.746V53.9844C179.746 54.9922 179.949 55.7461 180.355 56.2461C180.77 56.7461 181.41 56.9961 182.277 56.9961C183.113 56.9961 183.777 56.8242 184.27 56.4805C184.762 56.1367 185.109 55.6289 185.312 54.957C185.523 54.2852 185.629 53.4609 185.629 52.4844V46.0273H188.395Z" fill="#000072"/>
    <path d="M86.6188 67.1727C86.6188 69.7191 70.224 71.7832 50 71.7832C29.776 71.7832 13.3813 69.7191 13.3813 67.1727C13.3813 64.6265 29.776 62.5622 50 62.5622C70.224 62.5622 86.6188 64.6265 86.6188 67.1727Z" fill="#6B184E"/>
    <path d="M86.6188 67.1727C86.6188 69.7191 70.224 71.7832 50 71.7832C29.776 71.7832 13.3813 69.7191 13.3813 67.1727C13.3813 64.6265 29.776 62.5622 50 62.5622C70.224 62.5622 86.6188 64.6265 86.6188 67.1727Z" fill="#000072"/>
    <path d="M50.0001 63.0107C40.2371 63.0107 31.0611 63.489 24.1627 64.3573C15.9889 65.3866 13.8292 66.649 13.8292 67.1726C13.8292 67.6965 15.9889 68.9588 24.1627 69.9881C31.0611 70.8565 40.2371 71.3348 50.0001 71.3348C59.7631 71.3348 68.9391 70.8565 75.8376 69.9881C84.0111 68.9588 86.1711 67.6965 86.1711 67.1726C86.1711 66.649 84.0111 65.3866 75.8376 64.3573C68.9391 63.489 59.7633 63.0107 50.0001 63.0107ZM50.0001 72.2317C40.2008 72.2317 30.9853 71.7508 24.0509 70.8777C20.6637 70.4512 17.9992 69.9531 16.1315 69.3971C13.9498 68.7476 12.9336 68.0407 12.9336 67.1726C12.9336 66.3045 13.9498 65.5976 16.1315 64.9483C17.9992 64.3924 20.6637 63.8943 24.0509 63.4677C30.9853 62.5946 40.2008 62.1138 50.0001 62.1138C59.7993 62.1138 69.0151 62.5946 75.9491 63.4677C79.3363 63.8943 82.0008 64.3924 83.8686 64.9483C86.0503 65.5976 87.0666 66.3045 87.0666 67.1726C87.0666 68.0407 86.0503 68.7476 83.8686 69.3971C82.0008 69.9531 79.3363 70.4512 75.9491 70.8777C69.0148 71.7508 59.7993 72.2317 50.0001 72.2317Z" fill="#000072"/>
    <mask id="mask0_26_785" style="mask-type:luminance" maskUnits="userSpaceOnUse" x="13" y="25" width="74" height="47">
      <path d="M86.6189 67.1727C86.6189 69.7191 70.2241 71.7832 50.0001 71.7832C29.7761 71.7832 13.3815 69.7191 13.3815 67.1727C13.3815 64.6265 8.19777 25.6646 50.0001 25.6646C91.8024 25.6646 86.6189 64.6265 86.6189 67.1727Z" fill="white"/>
    </mask>
    <g mask="url(#mask0_26_785)">
      <path d="M71.4591 60.6653C70.4841 70.4135 58.9038 71.6563 53.4443 72.7424H46.5559C43.0276 72.0403 36.9419 71.2733 32.8154 68.1857C31.8189 67.4403 30.9366 66.5597 30.2314 65.5121C29.7299 64.7657 29.3181 63.9342 29.0191 63.0055C28.8176 62.3767 28.6676 61.7036 28.5766 60.9817C28.5419 60.7076 28.5156 60.4268 28.4989 60.1387C28.4481 59.2946 28.4754 58.3887 28.5889 57.418C28.6871 56.577 29.3304 53.6996 30.2071 50.8796C30.5051 49.9194 30.8306 48.9655 31.1709 48.1019C29.9259 42.566 29.4186 35.5937 31.2899 33.1915C32.5069 31.6293 35.8016 33.197 40.7954 37.4806C44.3619 35.9084 49.2503 35.8163 50.0006 35.819C50.7506 35.8163 55.6391 35.9084 59.2048 37.4806C64.1983 33.197 67.4931 31.6293 68.7101 33.1915C70.5816 35.5937 70.0743 42.566 68.8291 48.1019C70.1681 51.5029 71.2791 56.2906 71.4113 57.418C71.5491 58.5945 71.5593 59.6741 71.4591 60.6653Z" fill="#8E8FB3"/>
      <path d="M59.2049 38.8718C55.6874 37.3206 50.8821 37.2102 50.0331 37.2102C50.0214 37.2102 50.0106 37.2102 50.0006 37.2102C49.9904 37.2102 49.9794 37.2102 49.9679 37.2102C49.1194 37.2102 44.3139 37.3206 40.7954 38.8718C37.0694 35.6758 34.2889 33.9915 32.6119 33.9915C32.0416 33.9915 31.5989 34.1862 31.2899 34.5827C31.1634 34.7452 31.0476 34.9286 30.9424 35.1309C31.0711 34.634 31.2521 34.1589 31.4971 33.7534C31.5256 33.6996 31.5609 33.6536 31.5946 33.606L31.6449 33.5347C31.6616 33.5101 31.6786 33.4856 31.6941 33.4708C31.7266 33.4365 31.7541 33.396 31.7906 33.3689L31.8414 33.3224C31.8591 33.3084 31.8789 33.2971 31.8971 33.2838C32.0449 33.1812 32.2246 33.1184 32.4356 33.0984C32.4919 33.0929 32.5501 33.0903 32.6094 33.0903C32.7709 33.0903 32.9419 33.1099 33.1149 33.1444C33.3516 33.1922 33.5926 33.2603 33.8324 33.3484C34.3124 33.5229 34.7864 33.7579 35.2501 34.0155C36.1784 34.5349 37.0679 35.1552 37.9349 35.805C38.8011 36.4581 39.6434 37.1497 40.4714 37.8593L40.7069 38.0613L40.9959 37.9369C41.6879 37.6398 42.4104 37.399 43.1474 37.198C43.8849 36.9972 44.6399 36.8478 45.3986 36.7206C46.1584 36.5952 46.9251 36.5019 47.6946 36.4363C48.4626 36.3699 49.2396 36.3301 50.0001 36.3244C50.7606 36.3279 51.5376 36.3689 52.3056 36.4348C53.0751 36.5001 53.8421 36.5935 54.6019 36.7189C55.3609 36.8458 56.1159 36.9952 56.8536 37.1955C57.5906 37.3965 58.3134 37.6373 59.0054 37.9344L59.2929 38.0581L59.5271 37.8573C60.3551 37.1472 61.1971 36.4556 62.0634 35.8022C62.9304 35.1524 63.8196 34.5319 64.7481 34.0117C65.2121 33.7544 65.6861 33.5191 66.1664 33.3444C66.4064 33.2561 66.6474 33.188 66.8846 33.1402C67.0579 33.1054 67.2294 33.0856 67.3914 33.0856C67.4506 33.0856 67.5086 33.0883 67.5651 33.0939C67.7766 33.1139 67.9574 33.177 68.1059 33.2798C68.1241 33.2931 68.1439 33.3046 68.1619 33.3189L68.2126 33.3654C68.2494 33.3927 68.2771 33.4333 68.3099 33.4676C68.3256 33.4828 68.3424 33.5071 68.3591 33.5317L68.4096 33.6032C68.4436 33.6508 68.4786 33.6971 68.5074 33.7509C68.7551 34.1609 68.9374 34.6415 69.0666 35.1439C69.0674 35.1467 69.0679 35.1494 69.0686 35.1522C68.9604 34.9414 68.8411 34.7509 68.7101 34.5827C68.4011 34.1862 67.9584 33.9915 67.3881 33.9915C65.7111 33.9915 62.9311 35.6753 59.2049 38.8718Z" fill="#C7C7D9"/>
      <path d="M71.4592 60.6653C70.4842 70.4135 58.9039 71.6563 53.4444 72.7424H46.5559C43.0277 72.0403 36.9419 71.2733 32.8154 68.1857C31.8189 67.4403 30.9367 66.5597 30.2314 65.5121C29.7299 64.7657 29.3182 63.9342 29.0192 63.0055C28.8177 62.3767 28.6677 61.7036 28.5767 60.9817C37.0102 68.2335 43.0972 64.9807 45.8189 59.4411C46.8699 57.3026 48.9392 57.0971 49.8374 57.0971C50.7357 57.0971 52.8049 57.3026 53.8549 59.4411C56.6152 65.0596 62.8389 68.3267 71.4592 60.6653Z" fill="white"/>
      <path d="M50.0002 71.335C46.9552 71.335 43.967 71.2884 41.0875 71.198C40.3195 71.0088 39.5572 70.804 38.8065 70.5693C38.718 70.2539 38.566 69.8639 38.305 69.4739C37.936 68.9242 37.35 68.3745 36.4182 68.0356C35.6545 67.7577 34.565 67.5843 33.4167 67.5843C33.2137 67.5843 33.0085 67.5898 32.8032 67.601C31.9875 66.9515 31.2615 66.2008 30.6765 65.3492C30.631 65.2834 30.5865 65.2173 30.5427 65.1505C30.6677 65.2509 30.7947 65.3492 30.9235 65.4456C34.065 67.7963 44.9902 68.9773 49.9992 68.9773C54.6217 68.9773 65.4382 67.6494 69.6072 64.9239L69.329 65.354C68.9082 65.944 68.4455 66.5097 67.902 66.9993L67.7037 67.188C67.6372 67.2506 67.5637 67.3057 67.494 67.3647L67.2067 67.6023C66.9935 67.5903 66.7807 67.5843 66.5697 67.5843C65.4215 67.5843 64.3322 67.7577 63.5682 68.0356C62.6365 68.3745 62.0505 68.9242 61.6815 69.4739C61.415 69.8721 61.262 70.2706 61.1745 70.5893C60.4587 70.8121 59.7332 71.0103 59.003 71.1953C56.096 71.2874 53.0767 71.335 50.0002 71.335Z" fill="#D9D9EA"/>
      <path d="M37.4137 47.224C37.1605 46.829 38.838 43.2964 42 44.3394C43.139 44.7154 43.2462 45.8273 42.3632 46.0646C41.522 46.2906 41.1432 46.1084 39.8395 46.5677C39.1017 46.8278 37.667 47.619 37.4137 47.224Z" fill="#000072"/>
      <path d="M62.5867 47.224C62.8399 46.829 61.1624 43.2964 58.0004 44.3394C56.8614 44.7154 56.7542 45.8273 57.6372 46.0646C58.4784 46.2906 58.8572 46.1084 60.1609 46.5677C60.8987 46.8278 62.3334 47.619 62.5867 47.224Z" fill="#000072"/>
      <path d="M35.6491 41.6576C34.1139 43.2972 33.1461 45.5913 33.0096 45.3232C32.9964 45.2977 32.9831 45.2669 32.9699 45.2308C32.6789 44.4796 32.1984 41.5009 32.2049 38.8474C32.2069 38.4196 32.2186 38.0416 32.2411 37.7084C32.3011 36.8091 32.4296 36.2328 32.5869 35.8641C32.7819 35.4136 33.2189 35.2761 33.6054 35.4281C34.6334 35.8336 37.5516 37.7613 38.5016 38.9958C38.6709 39.2153 37.1856 40.0181 35.6491 41.6576Z" fill="#F27E80"/>
      <path d="M35.6492 41.6576C34.114 43.2972 33.1462 45.5913 33.0097 45.3232C32.9965 45.2977 32.9832 45.2669 32.97 45.2308C33.3135 43.8388 34.2575 41.9162 34.9807 40.5262C35.9695 38.6281 34.614 37.1162 33.437 36.6629C33.0332 36.5069 32.5527 37.171 32.2412 37.7084C32.3012 36.8091 32.4297 36.2328 32.587 35.8641C32.782 35.4136 33.219 35.2761 33.6055 35.4281C34.6335 35.8336 37.5517 37.7613 38.5017 38.9958C38.671 39.2153 37.1857 40.0181 35.6492 41.6576Z" fill="#FF5C64"/>
      <path d="M32.7139 38.849C32.7084 40.8342 32.9841 42.9822 33.2229 44.1867C33.6934 43.4014 34.3874 42.2613 35.2786 41.3093C36.1014 40.431 36.9189 39.7787 37.4599 39.3469C37.5961 39.238 37.7424 39.1213 37.8576 39.0242C36.7746 37.8655 34.2706 36.2377 33.4191 35.9023C33.3251 35.8653 33.1529 35.8375 33.0541 36.0663C32.9016 36.4222 32.7184 37.1952 32.7139 38.849ZM33.0464 45.8538C33.0379 45.8538 33.0294 45.8538 33.0204 45.8535C32.8246 45.8468 32.6469 45.7321 32.5564 45.5541C32.2116 44.8773 31.6894 41.6029 31.6969 38.8462C31.7009 37.3599 31.8391 36.3188 32.1199 35.6638C32.4124 34.9859 33.1151 34.6883 33.7914 34.9546C34.8786 35.3827 37.8671 37.3366 38.9049 38.6845C39.0294 38.8465 39.1701 39.1839 38.7124 39.6252C38.5669 39.7654 38.3581 39.9321 38.0939 40.1431C37.5449 40.5814 36.7929 41.1814 36.0206 42.0062C35.1716 42.9126 34.4936 44.0447 34.0451 44.7937C33.5756 45.5777 33.4104 45.8538 33.0464 45.8538Z" fill="#000072"/>
      <path d="M64.4043 41.6576C65.9398 43.2972 66.9073 45.5913 67.0441 45.3232C67.0573 45.2977 67.0706 45.2669 67.0838 45.2308C67.3746 44.4796 67.8553 41.5009 67.8488 38.8474C67.8466 38.4196 67.8351 38.0416 67.8126 37.7084C67.7526 36.8091 67.6241 36.2328 67.4668 35.8641C67.2718 35.4136 66.8348 35.2761 66.4481 35.4281C65.4203 35.8336 62.5018 37.7613 61.5521 38.9958C61.3826 39.2153 62.8678 40.0181 64.4043 41.6576Z" fill="#F27E80"/>
      <path d="M64.4043 41.6576C65.9398 43.2972 66.9073 45.5913 67.0441 45.3232C67.0573 45.2977 67.0706 45.2669 67.0838 45.2308C66.7401 43.8388 65.7963 41.9162 65.0731 40.5262C64.0843 38.6281 65.4398 37.1162 66.6168 36.6629C67.0203 36.5069 67.5008 37.171 67.8126 37.7084C67.7526 36.8091 67.6241 36.2328 67.4668 35.8641C67.2718 35.4136 66.8348 35.2761 66.4481 35.4281C65.4203 35.8336 62.5018 37.7613 61.5521 38.9958C61.3826 39.2153 62.8678 40.0181 64.4043 41.6576Z" fill="#FF5C64"/>
      <path d="M62.1963 39.0242C62.3115 39.1213 62.4575 39.238 62.594 39.3469C63.1348 39.7787 63.9523 40.431 64.775 41.3093C65.6665 42.2613 66.3603 43.4014 66.831 44.1867C67.0698 42.9822 67.3453 40.834 67.3398 38.849C67.3355 37.1952 67.1523 36.4222 66.9993 36.065C66.901 35.8375 66.7285 35.8655 66.6348 35.9023C65.7833 36.2377 63.2793 37.8655 62.1963 39.0242ZM67.0073 45.8538C66.6435 45.8538 66.4783 45.5779 66.0088 44.7937C65.56 44.0447 64.8823 42.9126 64.033 42.0062C63.2608 41.1814 62.509 40.5814 61.9598 40.1431C61.6955 39.9321 61.487 39.7654 61.3415 39.6252C60.8838 39.1839 61.0243 38.8465 61.1488 38.6845C62.1868 37.3366 65.1753 35.3827 66.2625 34.9546C66.9383 34.6883 67.6413 34.9859 67.9333 35.6623C68.2145 36.3188 68.353 37.3601 68.357 38.8462C68.3645 41.6027 67.8423 44.877 67.4975 45.5541C67.4068 45.7321 67.229 45.8468 67.0333 45.8535C67.0245 45.8538 67.016 45.8538 67.0073 45.8538Z" fill="#000072"/>
      <path d="M53.402 72.5286C54.8785 72.1291 56.3655 71.8355 57.8312 71.4818C59.2975 71.1334 60.7527 70.7584 62.162 70.2625C62.5127 70.1356 62.8642 70.01 63.2072 69.8655C63.5552 69.7319 63.8905 69.5724 64.2297 69.4212C64.3987 69.3444 64.5615 69.2563 64.728 69.1744C64.8935 69.0911 65.06 69.01 65.219 68.9156L65.7012 68.6427C65.8592 68.5476 66.0125 68.4455 66.1682 68.3474L66.4012 68.1987C66.477 68.1466 66.5502 68.0916 66.625 68.038L67.0707 67.7146L67.494 67.3646C67.5637 67.3056 67.6372 67.2505 67.7037 67.1879L67.902 66.9992C68.4455 66.5096 68.9082 65.9439 69.329 65.3539L69.6245 64.8971C69.6487 64.8588 69.6745 64.8215 69.6977 64.7824L69.7615 64.6623L69.8887 64.4222L70.0165 64.1822C70.0375 64.1419 70.06 64.1026 70.0795 64.0618L70.1325 63.9364L70.3447 63.4352L70.398 63.3101L70.4405 63.1807L70.5242 62.9213C70.577 62.7474 70.6435 62.5777 70.6857 62.4007L70.8082 61.868L70.87 61.6017L70.9087 61.3301L70.987 60.7874C70.993 60.7421 71.0012 60.6971 71.0057 60.6515L71.014 60.5141L71.031 60.2392L71.0657 59.6901C71.067 59.5061 71.0617 59.3216 71.06 59.1374L71.0517 58.5849L71.005 58.032L70.9585 57.4793L70.9207 57.2175L70.873 56.9461C70.7347 56.216 70.5642 55.4783 70.3852 54.7466C70.205 54.014 70.0135 53.2835 69.807 52.5576C69.3957 51.1063 68.939 49.6665 68.395 48.273L68.3427 48.1391L68.374 47.9989C68.8462 45.8738 69.186 43.7138 69.3597 41.5476C69.443 40.465 69.4865 39.3797 69.4555 38.3026C69.425 37.2277 69.3257 36.1521 69.0667 35.1439C68.9375 34.6415 68.7552 34.1609 68.5075 33.7509C68.4787 33.6971 68.4437 33.6508 68.4097 33.6032L68.3592 33.5316C68.3425 33.5071 68.3257 33.4828 68.31 33.4675C68.2772 33.4332 68.2495 33.3927 68.2127 33.3654L68.162 33.3188C68.144 33.3046 68.1242 33.2931 68.106 33.2798C67.9575 33.1769 67.7767 33.1138 67.5652 33.0938C67.3547 33.073 67.1215 33.0928 66.8847 33.1401C66.6475 33.1879 66.4065 33.256 66.1665 33.3444C65.6862 33.5191 65.2122 33.7544 64.7482 34.0117C63.8197 34.5319 62.9305 35.1524 62.0635 35.8022C61.1972 36.4555 60.3552 37.1471 59.5272 37.8573L59.293 38.058L59.0055 37.9344C58.3135 37.6372 57.5907 37.3964 56.8537 37.1954C56.116 36.9952 55.361 36.8457 54.602 36.7188C53.8422 36.5934 53.0752 36.5001 52.3057 36.4347C51.5377 36.3689 50.7607 36.3279 50.0002 36.3243C49.2397 36.3301 48.4627 36.3699 47.6947 36.4362C46.9252 36.5018 46.1585 36.5952 45.3987 36.7206C44.64 36.8478 43.885 36.9972 43.1475 37.1979C42.4105 37.3989 41.688 37.6397 40.996 37.9369L40.707 38.0613L40.4715 37.8593C39.6435 37.1496 38.8012 36.458 37.935 35.8049C37.068 35.1551 36.1785 34.5349 35.2502 34.0155C34.7865 33.7579 34.3125 33.5228 33.8325 33.3484C33.5927 33.2603 33.3517 33.1922 33.115 33.1444C32.8785 33.0973 32.6455 33.0778 32.4357 33.0983C32.2247 33.1183 32.045 33.1812 31.8972 33.2838C31.879 33.2971 31.8592 33.3083 31.8415 33.3223L31.7907 33.3689C31.7542 33.3959 31.7267 33.4365 31.6942 33.4708C31.6787 33.4855 31.6617 33.5101 31.645 33.5346L31.5947 33.6059C31.561 33.6535 31.5257 33.6996 31.4972 33.7534C31.2497 34.1629 31.068 34.643 30.9387 35.1451C30.68 36.1529 30.5812 37.2282 30.5507 38.3028C30.52 39.3797 30.5637 40.4645 30.647 41.5471C30.8212 43.7128 31.1615 45.8725 31.634 47.9972L31.6657 48.1404L31.6125 48.276C31.0662 49.6678 30.6132 51.1093 30.201 52.5601C29.9957 53.2863 29.8035 54.0165 29.6232 54.7491C29.4442 55.4808 29.2737 56.2185 29.1367 56.9484C29.102 57.1311 29.0732 57.3106 29.051 57.481C29.0295 57.665 29.011 57.849 28.9952 58.0332C28.964 58.4014 28.945 58.7702 28.9402 59.1384C28.9305 59.8748 28.9775 60.6092 29.0937 61.3301C29.3227 62.7717 29.8495 64.1569 30.6765 65.3491C31.4982 66.5456 32.5992 67.5431 33.835 68.3404C35.0737 69.1381 36.4375 69.7504 37.843 70.2483C39.25 70.7484 40.7065 71.1183 42.1745 71.4563L42.7247 71.5862L43.2775 71.7103L44.3837 71.9656C45.1227 72.1374 45.8632 72.3146 46.5985 72.5286C46.7145 72.5624 46.781 72.684 46.7475 72.8002C46.7172 72.9036 46.6177 72.9677 46.5145 72.9566H46.5135C45.0052 72.7974 43.4945 72.5984 41.9927 72.3003C40.492 72.0029 39.002 71.6105 37.5445 71.0991C36.089 70.5862 34.661 69.9506 33.3415 69.1046C32.0262 68.2593 30.8262 67.1824 29.9222 65.8708C29.0117 64.5649 28.4305 63.0377 28.181 61.4788C28.0535 60.6988 28.0025 59.9106 28.0112 59.1271C28.0157 58.7351 28.0352 58.3444 28.0675 57.9551C28.084 57.7606 28.103 57.5664 28.1255 57.3729C28.1515 57.1664 28.1835 56.9704 28.2192 56.7797C28.3612 56.0152 28.5325 55.271 28.7132 54.5258C28.8947 53.7819 29.0882 53.0417 29.2952 52.3046C29.7112 50.831 30.1675 49.3672 30.7295 47.9274L30.708 48.206C30.2222 46.0385 29.872 43.843 29.6895 41.624C29.602 40.5141 29.5545 39.3984 29.5847 38.2763C29.6157 37.1551 29.7122 36.0245 29.9982 34.8988C30.143 34.3374 30.3462 33.7747 30.6667 33.2415C30.7035 33.1742 30.7502 33.1098 30.796 33.045L30.8645 32.9484C30.887 32.9163 30.9092 32.8843 30.941 32.8493C31.001 32.7817 31.0562 32.7113 31.127 32.652L31.2297 32.5604C31.2652 32.5319 31.304 32.5063 31.3415 32.4795C31.6447 32.267 32.0045 32.1549 32.3395 32.1238C32.6772 32.0908 32.9975 32.1226 33.299 32.1812C33.6005 32.241 33.8892 32.3238 34.1652 32.4245C34.7185 32.6247 35.2317 32.88 35.7285 33.1544C36.7192 33.7071 37.637 34.3466 38.5292 35.0125C39.4192 35.6808 40.2775 36.3834 41.1192 37.1023L40.5947 37.0247C41.344 36.7008 42.112 36.4442 42.8877 36.2312C43.6637 36.019 44.449 35.862 45.2362 35.7289C46.0237 35.5972 46.8147 35.4996 47.6077 35.4305C48.4022 35.3619 49.1925 35.3163 50.0002 35.3128C50.808 35.3186 51.5982 35.3626 52.3927 35.432C53.1855 35.5013 53.9765 35.5989 54.764 35.7306C55.551 35.864 56.3362 36.021 57.1122 36.2335C57.8877 36.4465 58.6557 36.7033 59.4045 37.0272L58.883 37.1043C59.725 36.3857 60.5832 35.6833 61.4732 35.0152C62.3655 34.3496 63.2832 33.7103 64.274 33.1579C64.7705 32.8838 65.2837 32.6285 65.8365 32.4285C66.1125 32.3278 66.401 32.2452 66.7022 32.1854C67.0037 32.1271 67.3232 32.0953 67.6605 32.1284C67.995 32.1596 68.3537 32.2713 68.6562 32.4833C68.6937 32.5101 68.7322 32.5356 68.768 32.5641L68.87 32.6555C68.9407 32.7148 68.996 32.7849 69.0557 32.8523C69.0875 32.8871 69.1097 32.9191 69.132 32.9511L69.2005 33.048C69.2462 33.1126 69.293 33.1767 69.3297 33.2442C69.6497 33.7767 69.8527 34.3391 69.9972 34.9001C70.2827 36.0252 70.3792 37.1554 70.41 38.2765C70.44 39.3984 70.3922 40.5138 70.3045 41.6235C70.1217 43.842 69.771 46.0372 69.285 48.2044L69.2637 47.9304C69.8222 49.3704 70.282 50.833 70.6962 52.3066C70.9042 53.0435 71.0965 53.7839 71.2782 54.5276C71.4585 55.2725 71.6295 56.017 71.7722 56.7807L71.8225 57.0708L71.8655 57.3732L71.9137 57.9566L71.9615 58.5401L71.9695 59.1274C71.9707 59.3231 71.9757 59.5188 71.9737 59.7148L71.936 60.3031L71.9167 60.5974L71.907 60.7444C71.902 60.7932 71.8935 60.842 71.8867 60.8908L71.8015 61.4763L71.7585 61.7689L71.6915 62.058L71.5567 62.636C71.51 62.828 71.4382 63.014 71.38 63.2034L71.2877 63.486L71.2405 63.627L71.1825 63.7641L70.9487 64.3121L70.8902 64.449C70.8687 64.4938 70.844 64.5371 70.8212 64.5812L70.681 64.844L70.5405 65.1068L70.4702 65.238C70.4447 65.2808 70.4165 65.3216 70.39 65.3636L70.0652 65.863C69.605 66.5078 69.0962 67.1226 68.5095 67.6505L68.2945 67.8538C68.2222 67.9208 68.1437 67.9802 68.0685 68.0437L67.6127 68.4185L67.136 68.7631C67.056 68.82 66.9775 68.8788 66.8967 68.9339L66.6492 69.0913C66.4837 69.1952 66.3202 69.3033 66.1527 69.4034L65.6432 69.6906C65.475 69.7897 65.3002 69.8745 65.1265 69.9616C64.952 70.0473 64.7802 70.1394 64.6035 70.2192C64.249 70.3767 63.8975 70.5421 63.5362 70.6803C63.179 70.8297 62.815 70.9591 62.4517 71.0896C61.722 71.3401 60.9872 71.5734 60.2432 71.7636C59.8725 71.8653 59.4987 71.9501 59.126 72.0412C58.7517 72.1218 58.3775 72.2044 58.002 72.2758C56.5002 72.5692 54.9907 72.7734 53.487 72.9566L53.4855 72.9569C53.3657 72.9714 53.2567 72.886 53.2422 72.7661C53.229 72.6568 53.2987 72.5564 53.402 72.5286Z" fill="#000072"/>
      <path d="M51.8515 63.1511C51.8017 63.1511 51.751 63.1494 51.6985 63.1464C50.2565 63.062 49.9575 61.8735 49.936 61.7777C49.9135 61.8735 49.6142 63.062 48.1722 63.1464C48.1202 63.1494 48.069 63.1509 48.0192 63.1511C46.1355 63.1514 46.1367 60.9882 46.1367 60.9882H46.137V60.9884C46.137 60.9884 46.2007 61.1566 46.3352 61.3767C46.335 61.3767 46.3347 61.3767 46.3347 61.3764C46.5877 61.7904 47.092 62.3864 47.8927 62.3864C48.033 62.3864 48.1822 62.3681 48.3407 62.3276C49.6402 61.9939 49.8685 60.7624 49.8987 60.1389C49.9172 60.1384 49.9357 60.1376 49.9542 60.1366C49.9702 60.5018 50.0535 61.0775 50.3817 61.5596C50.613 61.8996 50.9662 62.1929 51.5035 62.3334C51.6647 62.3754 51.816 62.3942 51.9582 62.3942C51.9955 62.3942 52.032 62.3929 52.068 62.3904C52.8025 62.3399 53.2725 61.7827 53.5142 61.3902C53.514 61.3902 53.5137 61.3902 53.5135 61.3902C53.6485 61.1711 53.7127 61.0034 53.7127 61.0034C53.7127 61.0034 53.714 60.9934 53.7155 60.9744L53.7332 60.9882C53.7332 60.9882 53.734 63.1511 51.8515 63.1511Z" fill="#D9D9EA"/>
      <path d="M53.7126 61.0035C53.7126 61.0035 53.0486 62.7369 51.5034 62.3334C49.7441 61.8741 49.9596 59.7729 49.9596 59.7729L49.8946 59.7727C49.8946 59.7727 50.1021 61.8748 48.3409 62.3271C46.7939 62.7246 46.1369 60.9884 46.1369 60.9884C46.1369 60.9884 45.7034 57.0966 49.9176 57.0966C54.1316 57.0966 53.7126 61.0035 53.7126 61.0035Z" fill="white"/>
      <path d="M52.068 62.3904C52.802 62.3393 53.2715 61.7826 53.5135 61.3901C53.5137 61.3901 53.514 61.3901 53.5142 61.3901C53.2725 61.7826 52.8025 62.3398 52.068 62.3904ZM47.8927 62.3864C47.092 62.3864 46.5877 61.7904 46.3347 61.3764C46.3347 61.3766 46.335 61.3766 46.3352 61.3766C46.5882 61.7901 47.0915 62.3861 47.8925 62.3861C48.0327 62.3861 48.1822 62.3679 48.341 62.3271C49.6402 61.9934 49.8682 60.7621 49.8982 60.1388C49.8985 60.1388 49.8985 60.1388 49.8987 60.1388C49.8685 60.7623 49.6402 61.9939 48.3407 62.3276C48.1822 62.3681 48.033 62.3864 47.8927 62.3864ZM50.3817 61.5596C50.0535 61.0775 49.9702 60.5018 49.9542 60.1366C49.9545 60.1366 49.9545 60.1366 49.9547 60.1366C49.9707 60.5015 50.0537 61.0775 50.3817 61.5596Z" fill="#B9B9D8"/>
      <path d="M51.9597 62.3943C51.8172 62.3943 51.6655 62.3755 51.504 62.3332C50.9665 62.193 50.6132 61.8997 50.3817 61.5597C50.0537 61.0776 49.9707 60.5017 49.9547 60.1367C50.161 60.1252 50.3662 60.0831 50.5662 60.0106C50.943 60.5522 51.5515 61.0456 52.5302 61.3014C52.794 61.3703 53.042 61.4015 53.2747 61.4015C53.3562 61.4015 53.4357 61.3978 53.5135 61.3903C53.2715 61.7828 52.802 62.3395 52.068 62.3905C52.0325 62.393 51.9962 62.3943 51.9597 62.3943ZM47.8925 62.3863C47.0915 62.3863 46.5882 61.7903 46.3352 61.3768C46.4122 61.3838 46.491 61.3875 46.5715 61.3875C46.802 61.3875 47.047 61.3572 47.3077 61.2907C48.2592 61.0461 48.8627 60.576 49.2442 60.0541C49.4395 60.1114 49.639 60.14 49.8385 60.14C49.8585 60.14 49.8782 60.1397 49.8982 60.139C49.8682 60.7622 49.6402 61.9935 48.341 62.3272C48.1822 62.368 48.0327 62.3863 47.8925 62.3863Z" fill="#D9D9EA"/>
      <path d="M46.3748 60.898C46.4273 60.9833 46.4943 61.0892 46.5623 61.1786C46.6285 61.2727 46.703 61.3588 46.7773 61.4424C46.9283 61.6063 47.095 61.745 47.2715 61.8384C47.4472 61.9355 47.6315 61.9826 47.8212 61.9973C47.9185 61.9888 48.014 62.0001 48.1137 61.9718C48.163 61.96 48.2127 61.9568 48.2625 61.9428L48.411 61.8937C48.8083 61.7638 49.109 61.4852 49.3135 61.106C49.4163 60.9175 49.4903 60.703 49.5435 60.4797C49.5723 60.3685 49.5907 60.2534 49.6082 60.138C49.624 60.0251 49.6372 59.899 49.6417 59.7976L49.6425 59.7781C49.6487 59.6376 49.7675 59.5285 49.908 59.5348C50.0302 59.54 50.1287 59.6311 50.1477 59.7475C50.173 59.8992 50.1825 60.0279 50.1852 60.1685C50.189 60.3065 50.182 60.4446 50.167 60.5836C50.135 60.8599 50.0763 61.1418 49.9548 61.4098C49.7348 61.9495 49.2487 62.4361 48.6765 62.6241L48.4642 62.6962C48.3922 62.718 48.315 62.7275 48.2402 62.7415C48.0922 62.7756 47.931 62.7668 47.7755 62.7688C47.4582 62.745 47.149 62.6329 46.8907 62.4667C46.6325 62.2977 46.4257 62.0799 46.2642 61.8449C46.1845 61.7265 46.1132 61.6043 46.0525 61.4782C45.9905 61.3498 45.943 61.2281 45.8992 61.0784C45.8597 60.9435 45.937 60.8021 46.0715 60.7625C46.184 60.7295 46.3007 60.7778 46.3595 60.8732L46.3748 60.898Z" fill="#000072"/>
      <path d="M53.9503 61.0945C53.9058 61.2439 53.858 61.3656 53.7953 61.4937C53.734 61.6196 53.6625 61.7413 53.5823 61.8594C53.42 62.094 53.212 62.3108 52.9533 62.4787C52.6943 62.6439 52.3848 62.7548 52.0673 62.7773C51.9118 62.7746 51.7505 62.7829 51.6028 62.7481C51.528 62.734 51.4508 62.724 51.379 62.702L51.167 62.6292C50.5955 62.4387 50.1115 61.9503 49.8935 61.4099C49.7733 61.1413 49.7155 60.8592 49.6845 60.5826C49.67 60.4437 49.6635 60.3055 49.6678 60.1676C49.671 60.0269 49.6813 59.8985 49.707 59.7468C49.7305 59.6079 49.862 59.5145 50.0005 59.5383C50.1213 59.5588 50.2075 59.6614 50.212 59.7791L50.2128 59.7986C50.2168 59.9002 50.2298 60.0264 50.245 60.1393C50.262 60.2549 50.28 60.3701 50.3085 60.4812C50.3608 60.7048 50.4338 60.9195 50.5358 61.1085C50.739 61.4885 51.0385 61.7683 51.4353 61.8997L51.5835 61.9493C51.6333 61.9636 51.683 61.9671 51.7323 61.9791C51.832 62.0076 51.9273 61.9969 52.0245 62.0056C52.2143 61.9916 52.399 61.9453 52.5748 61.8489C52.752 61.7563 52.919 61.6184 53.0708 61.4549C53.1453 61.3716 53.2203 61.2857 53.2868 61.1921C53.3553 61.1028 53.4225 60.9974 53.4755 60.9123L53.4908 60.8875C53.5648 60.7681 53.7215 60.7315 53.8408 60.8056C53.9403 60.8677 53.982 60.9874 53.9503 61.0945Z" fill="#000072"/>
      <path d="M52.0498 58.6754C52.0488 59.1725 51.4003 59.6105 50.805 59.9077C50.1825 60.2185 49.4858 60.2173 48.8645 59.9039C48.2705 59.6043 47.6238 59.1637 47.6248 58.6666C47.6278 57.1672 52.0528 57.176 52.0498 58.6754Z" fill="#000072"/>
      <path d="M49.8392 58.8005C49.7077 58.8005 49.5762 58.7778 49.4525 58.7322C49.2167 58.6456 48.9602 58.5187 48.9604 58.3753C48.9609 58.16 49.3962 58.0526 49.8332 58.0526C50.2734 58.0526 50.7155 58.1617 50.715 58.3788C50.7147 58.5219 50.4577 58.6481 50.2217 58.7337C50.0992 58.7783 49.9692 58.8005 49.8392 58.8005Z" fill="#8080B9"/>
      <path d="M31.1577 59.9189C31.0734 59.8703 30.9759 59.8183 30.8819 59.77C30.7884 59.7191 30.6922 59.6721 30.5949 59.626C30.4992 59.5785 30.4017 59.5334 30.3022 59.4914C30.2029 59.4498 30.1072 59.4017 30.0072 59.3617C29.6087 59.1987 29.2079 59.0418 28.7972 58.9126C27.9782 58.6503 27.1424 58.4348 26.2899 58.3046C26.1844 58.2831 26.0772 58.2721 25.9702 58.2598L25.6492 58.2205L25.3284 58.1802C25.2214 58.1679 25.1134 58.1652 25.0059 58.1572C24.7905 58.1439 24.5752 58.1302 24.3598 58.1136L23.7118 58.1059C23.2788 58.0868 22.848 58.1384 22.4143 58.1494L22.2517 58.1564L22.09 58.1742L21.7665 58.21L21.1174 58.2773L21.1023 58.2788C20.9795 58.2916 20.8696 58.202 20.8569 58.0791C20.8448 57.9622 20.9257 57.8568 21.0392 57.8358L21.6983 57.7154L22.0288 57.6573L22.1943 57.6285L22.3611 57.6105C22.5835 57.5855 22.8066 57.5637 23.0298 57.5432C23.1415 57.5344 23.2528 57.5176 23.3649 57.5156L23.7012 57.5056C23.9255 57.4996 24.15 57.4906 24.3746 57.4876L25.0482 57.5136C25.1604 57.5199 25.2732 57.5206 25.3849 57.5312L25.7207 57.5662C25.9439 57.5922 26.1689 57.607 26.3907 57.6465L27.0567 57.7602C27.2777 57.8027 27.4962 57.8581 27.7157 57.9091C27.9362 57.9559 28.1502 58.028 28.3672 58.0891C28.5842 58.1497 28.7959 58.2275 29.0082 58.3041C29.8567 58.617 30.6674 59.0027 31.4154 59.5522C31.5149 59.6253 31.5364 59.7654 31.4634 59.8651C31.3954 59.9579 31.2692 59.983 31.1717 59.9269L31.1577 59.9189Z" fill="#000072"/>
      <path d="M31.7277 63.2846C31.3607 63.2405 30.9732 63.2105 30.5947 63.1945C30.214 63.1784 29.8335 63.1724 29.4537 63.1807C28.6947 63.1997 27.9375 63.2613 27.197 63.406C26.8265 63.4773 26.4597 63.5647 26.1012 63.6776C25.9205 63.7299 25.7455 63.7972 25.5672 63.8575C25.3937 63.9281 25.2167 63.9922 25.0477 64.0736C24.3604 64.3762 23.7222 64.7817 23.1388 65.2628L23.1354 65.2655C23.0399 65.3441 22.8987 65.3306 22.8201 65.235C22.7462 65.1451 22.7545 65.0145 22.8347 64.9336C23.4023 64.3662 24.0645 63.8841 24.7879 63.5264C25.1485 63.3454 25.5212 63.1882 25.904 63.0638C26.2855 62.9351 26.6742 62.8293 27.0682 62.7529C27.8545 62.5927 28.6557 62.5211 29.453 62.5366C30.2522 62.5532 31.0387 62.6403 31.8232 62.8465C31.943 62.8778 32.0145 63.0005 31.983 63.1204C31.9545 63.23 31.8492 63.2993 31.7397 63.2861L31.7277 63.2846Z" fill="#000072"/>
      <path d="M68.585 59.5521C69.333 59.0026 70.1438 58.6169 70.9923 58.304C71.2045 58.2274 71.4163 58.1496 71.6333 58.089C71.8503 58.0279 72.0643 57.9558 72.2848 57.909C72.5043 57.8579 72.7228 57.8026 72.944 57.7601L73.6098 57.6464C73.8315 57.6069 74.0565 57.5921 74.2798 57.5661L74.6155 57.531C74.7273 57.5205 74.84 57.5198 74.9523 57.5135L75.626 57.4875C75.8505 57.4905 76.075 57.4995 76.2993 57.5055L76.6355 57.5155C76.7478 57.5175 76.859 57.5343 76.9708 57.543C77.194 57.5636 77.417 57.5853 77.6393 57.6104L77.8063 57.6284L77.9715 57.6572L78.3023 57.7153L78.9613 57.8357C79.0828 57.8579 79.1633 57.9746 79.141 58.0962C79.12 58.2119 79.0138 58.2905 78.899 58.2787L78.883 58.2772L78.234 58.2099L77.9105 58.1741L77.7488 58.1563L77.5863 58.1493C77.1525 58.1383 76.7218 58.0867 76.2885 58.1058L75.6405 58.1135C75.4253 58.13 75.21 58.1438 74.9945 58.1571C74.887 58.1651 74.779 58.1678 74.672 58.1801L74.3513 58.2204L74.0303 58.2597C73.9233 58.272 73.816 58.283 73.7105 58.3045C72.858 58.4347 72.0223 58.6502 71.2033 58.9125C70.7925 59.0417 70.3918 59.1986 69.9933 59.3616C69.8933 59.4016 69.7975 59.4497 69.6983 59.4912C69.5988 59.5333 69.5013 59.5783 69.4055 59.6259C69.3083 59.672 69.212 59.719 69.1185 59.7698C69.0245 59.8181 68.927 59.8702 68.8428 59.9188L68.8288 59.9268C68.7215 59.9884 68.585 59.9513 68.5235 59.8442C68.466 59.7443 68.4943 59.6184 68.585 59.5521Z" fill="#000072"/>
      <path d="M68.1771 62.8465C68.9616 62.6402 69.7481 62.5531 70.5474 62.5366C71.3446 62.5211 72.1459 62.5927 72.9321 62.7529C73.3261 62.8292 73.7149 62.9351 74.0964 63.0638C74.4791 63.1882 74.8519 63.3454 75.2124 63.5263C75.9359 63.884 76.5981 64.3661 77.1656 64.9336C77.2531 65.0212 77.2534 65.1631 77.1659 65.2508C77.0839 65.3331 76.9539 65.3384 76.8656 65.266L76.8614 65.2628C76.2781 64.7817 75.6399 64.3762 74.9526 64.0735C74.7836 63.9922 74.6066 63.9281 74.4331 63.8575C74.2549 63.7972 74.0799 63.7299 73.8991 63.6775C73.5406 63.5646 73.1739 63.4773 72.8034 63.4059C72.0629 63.2613 71.3056 63.1997 70.5466 63.1807C70.1669 63.1724 69.7864 63.1784 69.4056 63.1944C69.0271 63.2105 68.6396 63.2405 68.2726 63.2845L68.2606 63.286C68.1376 63.3006 68.0264 63.213 68.0116 63.09C67.9981 62.9774 68.0704 62.8743 68.1771 62.8465Z" fill="#000072"/>
    </g>
    <path d="M50.0001 72.2317C40.2008 72.2317 30.9853 71.7508 24.0509 70.8777C20.6637 70.4512 17.9992 69.9531 16.1315 69.3971C13.9498 68.7476 12.9336 68.0407 12.9336 67.1726C12.9336 66.9251 13.1341 66.7243 13.3814 66.7243C13.6287 66.7243 13.8292 66.9251 13.8292 67.1726C13.8292 67.6965 15.9889 68.9588 24.1627 69.9879C31.0611 70.8565 40.2371 71.3348 50.0001 71.3348C59.7631 71.3348 68.9391 70.8565 75.8376 69.9879C84.0111 68.9588 86.1711 67.6965 86.1711 67.1726C86.1711 66.9251 86.3713 66.7243 86.6188 66.7243C86.8661 66.7243 87.0666 66.9251 87.0666 67.1726C87.0666 68.0407 86.0503 68.7476 83.8686 69.3971C82.0008 69.9531 79.3363 70.4512 75.9491 70.8777C69.0148 71.7508 59.7993 72.2317 50.0001 72.2317Z" fill="#000072"/>
    <path d="M38.9287 71.2558C38.8107 72.246 37.9977 73.2492 35.1007 73.06C33.1104 73.7333 31.4212 73.5328 29.8109 72.6212C28.5524 72.5824 27.7719 71.8785 27.8042 71.0573C27.8154 70.7892 27.8559 70.5389 27.9242 70.3061C28.7942 67.3121 34.1024 67.1929 36.4182 68.0355C37.3499 68.3744 37.9359 68.9241 38.3049 69.4738C38.9009 70.3644 38.9287 71.2558 38.9287 71.2558Z" fill="white"/>
    <path d="M32.8412 73.459C31.7707 73.459 30.7767 73.1681 29.8107 72.6212C28.577 72.5831 27.8025 71.9055 27.8032 71.105C27.8032 71.0893 27.8035 71.0733 27.804 71.0572C27.8152 70.7891 27.8557 70.5388 27.924 70.306C28.1017 70.3871 28.3377 70.4627 28.6 70.4627C29.004 70.4627 29.4707 70.2833 29.8837 69.6677C29.9557 71.0632 31.3585 71.8738 32.7855 71.8738C34.0127 71.8738 35.2577 71.2745 35.69 69.9328C35.69 69.9328 36.8905 71.0397 37.6755 71.0397C38.1327 71.0397 38.4487 70.6645 38.3047 69.4765V69.4738C38.9007 70.3644 38.9285 71.2557 38.9285 71.2557C38.898 71.5128 38.8205 71.7706 38.672 72.0082C38.2957 72.6104 37.4627 73.0833 35.7785 73.0833C35.5662 73.0833 35.3405 73.0758 35.1005 73.06C34.304 73.3293 33.5555 73.459 32.8412 73.459Z" fill="#D9D9EA"/>
    <path d="M33.3893 68.0284C31.9943 68.0284 30.501 68.2958 29.4595 68.9956C28.6923 69.5115 28.286 70.2109 28.2518 71.0747C28.243 71.2918 28.325 71.4993 28.4888 71.6752C28.7668 71.9739 29.254 72.1553 29.825 72.1729L29.9358 72.1761L30.032 72.2309C31.593 73.1158 33.158 73.2447 34.957 72.6354L35.041 72.6069L35.1295 72.6127C37.2033 72.7483 38.3293 72.286 38.4793 71.239C38.4595 70.9659 38.2538 69.1811 36.2653 68.4572C35.5578 68.1997 34.5048 68.0284 33.3893 68.0284ZM32.8475 73.9048C31.7548 73.9048 30.7075 73.6252 29.6855 73.064C28.914 73.0179 28.2595 72.7441 27.8335 72.2865C27.508 71.9368 27.3388 71.494 27.3568 71.0392C27.4023 69.8898 27.957 68.9258 28.9605 68.2512C31.106 66.8092 34.759 66.9548 36.5713 67.6144C39.2635 68.5946 39.373 71.1338 39.3763 71.2415L39.3773 71.2752L39.3733 71.3088C39.24 72.4214 38.399 73.701 35.1595 73.513C34.3633 73.7741 33.5948 73.9048 32.8475 73.9048Z" fill="#000072"/>
    <path d="M30.079 69.7769C29.9855 69.9919 29.9068 70.238 29.8508 70.4733C29.7963 70.7113 29.757 70.9514 29.7558 71.1837C29.7538 71.4152 29.7823 71.6377 29.845 71.836C29.9158 72.0307 30.023 72.1934 30.1528 72.3311L30.1605 72.3394C30.331 72.5198 30.323 72.8044 30.1428 72.9749C29.9625 73.1456 29.6783 73.1376 29.508 72.9571C29.4948 72.9431 29.481 72.9264 29.4698 72.9111C29.2748 72.6397 29.1428 72.3316 29.0835 72.0202C29.0323 71.7086 29.0428 71.4055 29.0873 71.1186C29.1315 70.831 29.2175 70.5616 29.3175 70.3028C29.4218 70.043 29.5368 69.8029 29.6883 69.5579C29.7533 69.4528 29.8915 69.4202 29.9965 69.4853C30.0925 69.5449 30.1278 69.665 30.084 69.7654L30.079 69.7769Z" fill="#000072"/>
    <path d="M35.9043 69.8685C36.0043 70.1592 36.07 70.4378 36.118 70.7334C36.1633 71.0267 36.1875 71.3281 36.17 71.6375C36.154 71.9461 36.0958 72.2645 35.971 72.5752C35.9068 72.7299 35.8255 72.8811 35.727 73.024C35.6263 73.1659 35.5073 73.2961 35.3758 73.4137C35.191 73.5792 34.9073 73.5632 34.7423 73.3782C34.577 73.1934 34.5928 72.9093 34.7775 72.7439C34.7918 72.7311 34.8065 72.7194 34.822 72.7086L34.8248 72.7068C34.9113 72.6478 34.9933 72.5817 35.0673 72.5041C35.1395 72.4247 35.2053 72.3361 35.2633 72.2385C35.376 72.0408 35.4565 71.8087 35.5028 71.5607C35.551 71.3128 35.566 71.0503 35.5608 70.7859C35.5545 70.5239 35.5255 70.2473 35.4755 69.998L35.473 69.9857C35.4488 69.8643 35.5273 69.7461 35.6485 69.7219C35.7598 69.6996 35.8685 69.7639 35.9043 69.8685Z" fill="#000072"/>
    <path d="M61.0576 71.2558C61.1756 72.246 61.9886 73.2492 64.8856 73.06C66.8759 73.7333 68.5651 73.5328 70.1754 72.6212C71.4339 72.5824 72.2144 71.8785 72.1821 71.0573C72.1709 70.7892 72.1304 70.5389 72.0621 70.3061C71.1921 67.3121 65.8841 67.1929 63.5681 68.0355C62.6364 68.3744 62.0504 68.9241 61.6814 69.4738C61.0854 70.3644 61.0576 71.2558 61.0576 71.2558Z" fill="white"/>
    <path d="M67.1449 73.459C66.4306 73.459 65.6821 73.3293 64.8856 73.06C64.6456 73.0758 64.4199 73.0833 64.2076 73.0833C62.5239 73.083 61.6909 72.6109 61.3146 72.0087C61.1659 71.7709 61.0884 71.5128 61.0576 71.2557C61.0576 71.2557 61.0854 70.3644 61.6814 69.4738V69.4765C61.5374 70.6645 61.8534 71.0397 62.3106 71.0397C63.0956 71.0397 64.2961 69.9328 64.2961 69.9328C64.7284 71.2745 65.9734 71.8738 67.2006 71.8738C68.6276 71.8735 70.0304 71.0632 70.1024 69.6677C70.5154 70.2833 70.9821 70.4627 71.3861 70.4627C71.6486 70.4627 71.8846 70.3871 72.0621 70.306C72.1304 70.5388 72.1709 70.7891 72.1821 71.0572C72.1826 71.0733 72.1829 71.0893 72.1829 71.105C72.1836 71.9055 71.4091 72.5831 70.1754 72.6212C69.2094 73.1681 68.2154 73.459 67.1449 73.459Z" fill="#D9D9EA"/>
    <path d="M64.9451 72.6069L65.0291 72.6354C66.8281 73.2445 68.3931 73.1158 69.9541 72.2309L70.0504 72.1761L70.1611 72.1729C70.7324 72.1553 71.2194 71.9739 71.4974 71.675C71.6611 71.4993 71.7431 71.2918 71.7346 71.0747C71.7001 70.2109 71.2939 69.5115 70.5266 68.9956C68.6521 67.7361 65.3129 67.8775 63.7211 68.4572C61.7324 69.1811 61.5266 70.9659 61.5069 71.239C61.6569 72.286 62.7834 72.7481 64.8566 72.6127L64.9451 72.6069ZM67.1386 73.9048C66.3911 73.9048 65.6231 73.7741 64.8269 73.513C61.5874 73.7013 60.7461 72.4214 60.6129 71.3088L60.6089 71.2752L60.6099 71.2415C60.6131 71.1338 60.7226 68.5946 63.4151 67.6144C65.2269 66.9548 68.8799 66.8089 71.0256 68.2512C72.0291 68.9258 72.5839 69.8898 72.6294 71.0392C72.6474 71.4938 72.4781 71.9368 72.1526 72.2865C71.7266 72.7441 71.0721 73.0179 70.3006 73.064C69.2789 73.6249 68.2311 73.9048 67.1386 73.9048Z" fill="#000072"/>
    <path d="M70.2978 69.5579C70.4493 69.803 70.5643 70.043 70.6686 70.3029C70.7686 70.5617 70.8546 70.831 70.8988 71.1186C70.9433 71.4055 70.9539 71.7086 70.9026 72.0203C70.8434 72.3316 70.7113 72.6398 70.5163 72.9111C70.3713 73.1126 70.0906 73.1582 69.8894 73.013C69.6881 72.8678 69.6423 72.587 69.7873 72.3855C69.7988 72.3697 69.8108 72.3549 69.8236 72.3412L69.8334 72.3311C69.9631 72.1935 70.0706 72.0308 70.1411 71.836C70.2038 71.6378 70.2323 71.4152 70.2303 71.1837C70.2293 70.9514 70.1898 70.7114 70.1353 70.4733C70.0793 70.238 70.0006 69.992 69.9071 69.7769L69.9021 69.7654C69.8529 69.652 69.9046 69.5199 70.0181 69.4706C70.1216 69.4255 70.2403 69.4646 70.2978 69.5579Z" fill="#000072"/>
    <path d="M64.5105 69.9979C64.4605 70.2472 64.4315 70.5238 64.4253 70.7859C64.42 71.0502 64.435 71.3128 64.4833 71.5606C64.5295 71.8086 64.61 72.0407 64.7228 72.2384C64.7808 72.336 64.8465 72.4246 64.9188 72.504C64.9928 72.5816 65.0748 72.6477 65.1613 72.7068L65.162 72.7073C65.3668 72.8469 65.4198 73.1263 65.2803 73.3315C65.141 73.5365 64.8618 73.5899 64.6568 73.4502C64.641 73.4394 64.6243 73.4259 64.6103 73.4136C64.479 73.296 64.3598 73.1658 64.259 73.0239C64.1605 72.881 64.0793 72.7298 64.015 72.5751C63.8903 72.2644 63.832 71.9461 63.816 71.6374C63.7985 71.328 63.8228 71.0267 63.868 70.7333C63.916 70.4377 63.9818 70.1591 64.0818 69.8685C64.122 69.7516 64.2495 69.6892 64.3665 69.7295C64.4738 69.7666 64.5348 69.8772 64.513 69.9856L64.5105 69.9979Z" fill="#000072"/>
    <path d="M44.2468 56.152C44.0798 58.4265 42.587 60.1705 40.9123 60.0473C39.2375 59.9242 38.0153 57.9805 38.1823 55.7059C38.349 53.4313 39.842 51.6874 41.5165 51.8105C43.1913 51.9337 44.4135 53.8774 44.2468 56.152Z" fill="#000072"/>
    <path d="M43.3286 55.3069C43.2624 56.2101 42.7521 56.9087 42.1889 56.8671C41.6259 56.8258 41.2231 56.0601 41.2894 55.157C41.3556 54.2539 41.8659 53.5552 42.4289 53.5968C42.9919 53.6381 43.3949 54.4038 43.3286 55.3069Z" fill="white"/>
    <path d="M40.1516 58.5337C39.8978 58.5337 39.5791 58.197 39.3988 57.7159C39.1961 57.174 39.2453 56.6546 39.5091 56.5555C39.5386 56.5445 39.5693 56.5392 39.6013 56.5392C39.8551 56.5392 40.1738 56.8759 40.3541 57.357C40.5568 57.8989 40.5076 58.4183 40.2441 58.5172C40.2143 58.5284 40.1836 58.5337 40.1516 58.5337Z" fill="#5959A3"/>
    <path d="M55.4996 56.152C55.6664 58.4265 57.1591 60.1705 58.8339 60.0473C60.5086 59.9242 61.7309 57.9805 61.5639 55.7059C61.3971 53.4313 59.9041 51.6874 58.2296 51.8105C56.5549 51.9337 55.3326 53.8774 55.4996 56.152Z" fill="#000072"/>
    <path d="M56.4178 55.3069C56.484 56.2101 56.9943 56.9087 57.5573 56.8671C58.1205 56.8258 58.5233 56.0601 58.457 55.157C58.3908 54.2539 57.8805 53.5552 57.3173 53.5968C56.7543 53.6381 56.3515 54.4038 56.4178 55.3069Z" fill="white"/>
    <path d="M59.5949 58.5337C59.5629 58.5337 59.5319 58.5284 59.5024 58.5172C59.2387 58.4183 59.1894 57.8989 59.3924 57.357C59.5727 56.8759 59.8912 56.5392 60.1449 56.5392C60.1769 56.5392 60.2079 56.5445 60.2374 56.5555C60.5012 56.6546 60.5504 57.174 60.3474 57.7159C60.1672 58.197 59.8487 58.5337 59.5949 58.5337Z" fill="#5959A3"/>
  </symbol>
</svg>