<svg xmlns="http://www.w3.org/2000/svg" xmlns:xlink="http://www.w3.org/1999/xlink">
  <symbol id="ranking" viewBox="0 -960 960 960">
    <title>Ranking</title>
    <path fill="currentColor" d="m354-247 126-76 126 77-33-144 111-96-146-13-58-136-58 135-146 13 111 97-33 143Zm126 18L314-129q-11 7-23 6t-21-8q-9-7-14-17.5t-2-23.5l44-189-147-127q-10-9-12.5-20.5T140-531q4-11 12-18t22-9l194-17 75-178q5-12 15.5-18t21.5-6q11 0 21.5 6t15.5 18l75 178 194 17q14 2 22 9t12 18q4 11 1.5 22.5T809-488L662-361l44 189q3 13-2 23.5T690-131q-9 7-21 8t-23-6L480-229Zm0-201Z" />
  </symbol>
  <symbol id="reading" viewBox="0 -960 960 960">
    <title>Reading</title>
      <path fill="currentColor" d="M560-609q0-9 6.5-18.5T581-640q29-10 58-15t61-5q20 0 39.5 2.5T778-651q9 2 15.5 10t6.5 18q0 17-11 25t-28 4q-14-3-29.5-4.5T700-600q-26 0-51 5t-48 13q-18 7-29.5-1T560-609Zm0 220q0-9 6.5-18.5T581-420q29-10 58-15t61-5q20 0 39.5 2.5T778-431q9 2 15.5 10t6.5 18q0 17-11 25t-28 4q-14-3-29.5-4.5T700-380q-26 0-51 4.5T601-363q-18 7-29.5-.5T560-389Zm0-110q0-9 6.5-18.5T581-530q29-10 58-15t61-5q20 0 39.5 2.5T778-541q9 2 15.5 10t6.5 18q0 17-11 25t-28 4q-14-3-29.5-4.5T700-490q-26 0-51 5t-48 13q-18 7-29.5-1T560-499ZM260-320q47 0 91.5 10.5T440-278v-394q-41-24-87-36t-93-12q-36 0-71.5 7T120-692v396q35-12 69.5-18t70.5-6Zm260 42q44-21 88.5-31.5T700-320q36 0 70.5 6t69.5 18v-396q-33-14-68.5-21t-71.5-7q-47 0-93 12t-87 36v394ZM280-494Zm200 313q-14 0-26.5-3.5T430-194q-39-23-82-34.5T260-240q-42 0-82.5 11T100-198q-21 11-40.5-1T40-234v-482q0-11 5.5-21T62-752q46-24 96-36t102-12q58 0 113.5 15T480-740q51-30 106.5-45T700-800q52 0 102 12t96 36q11 5 16.5 15t5.5 21v482q0 23-19.5 35t-40.5 1q-37-20-77.5-31T700-240q-45 0-88 11.5T530-194q-11 6-23.5 9.5T480-181Z" />
  </symbol>
  <symbol id="expand-more" viewBox="0 -960 960 960">
    <title>Expand More</title>
    <path fill="currentColor" d="M480-362q-8 0-15-2.5t-13-8.5L267-558q-11-11-10.5-27.5T268-613q11-11 28-11t28 11l156 156 157-157q11-11 27.5-10.5T692-613q11 11 11 28t-11 28L508-373q-6 6-13 8.5t-15 2.5Z" />
  </symbol>
  <symbol id="expand-less" viewBox="0 -960 960 960">
    <title>Expand Less</title>
    <path fill="currentColor" d="M268-373q-11-11-11-28t11-28l184-184q6-6 13-8.5t15-2.5q8 0 15 2.5t13 8.5l185 185q11 11 11 27t-12 28q-11 11-28 11t-28-11L480-529 323-372q-11 11-27 11t-28-12Z" />
  </symbol>
</svg>
